<svg width="32" height="32" viewBox="0 0 32 32" fill="none" xmlns="http://www.w3.org/2000/svg">
<path fill-rule="evenodd" clip-rule="evenodd" d="M5.68706 5.68707C4 7.37413 4 10.0894 4 15.52V16.48C4 21.9106 4 24.6259 5.68706 26.3129C7.37413 28 10.0894 28 15.52 28H16.48C21.9106 28 24.6259 28 26.3129 26.3129C28 24.6259 28 21.9106 28 16.48V15.52C28 10.0894 28 7.37413 26.3129 5.68707C24.6259 4 21.9106 4 16.48 4H15.52C10.0894 4 7.37413 4 5.68706 5.68707ZM8 11.3333C8.12848 17.5764 11.4077 21.3333 16.8126 21.3333H17.1262V17.7618C19.0946 17.9616 20.5626 19.4332 21.1619 21.3333H24C23.2301 18.4909 21.2338 16.9193 19.9931 16.3189C21.2328 15.5764 22.9875 13.7762 23.4007 11.3333H20.8186C20.2769 13.3199 18.6651 15.1201 17.1252 15.2911V11.3333H14.5018V18.2622C12.9054 17.8626 10.8228 15.9193 10.7375 11.3333H8Z" fill="black"/>
</svg>
